<svg xmlns="http://www.w3.org/2000/svg" width="200" height="200">
  <g transform="scale(1)">
    <rect x="0" y="0" width="200" height="200" fill="#3f0b53" stroke-width="1" stroke="none" />
    <g transform="translate(-7 6)">
      <path id="planet" fill="#060a1f" stroke="none" stroke-width="1" d="M 104.00,62.00
           C 111.88,61.91 112.14,60.37 116.00,60.22
             120.00,60.06 129.84,62.68 131.98,66.22
             132.91,67.77 132.86,69.29 133.00,71.00
             133.00,71.00 119.00,68.29 119.00,68.29
             112.55,67.49 106.43,69.67 104.00,62.00 Z
           M 134.00,72.00
           C 140.75,73.98 141.04,77.34 145.00,77.95
             145.00,77.95 165.00,76.00 165.00,76.00
             165.00,76.00 169.00,76.00 169.00,76.00
             171.96,76.01 174.06,76.00 177.00,76.68
             185.63,78.68 188.04,84.06 184.17,92.00
             180.35,99.81 173.03,104.96 166.00,109.67
             163.83,111.12 159.98,113.54 158.28,115.32
             154.79,118.97 154.22,127.11 148.45,136.00
             138.37,151.56 122.49,156.20 105.00,156.00
             98.51,155.92 82.68,152.04 78.99,146.47
             78.14,145.19 78.23,144.38 78.00,143.00
             88.41,142.16 107.25,138.40 116.00,133.00
             110.18,132.76 100.30,135.96 94.00,137.20
             81.25,139.70 68.97,141.02 56.00,141.00
             46.33,140.98 22.66,138.52 32.01,123.00
             35.76,116.78 46.55,110.67 53.00,107.23
             54.89,106.23 60.21,103.77 61.40,102.46
             63.03,100.66 62.98,98.23 63.52,96.00
             63.52,96.00 68.98,79.02 68.98,79.02
             69.88,77.17 71.35,75.38 73.29,74.57
             78.01,72.61 84.28,76.12 87.47,79.47
             93.04,85.30 95.93,96.06 109.00,102.09
             119.70,107.02 143.53,105.97 140.53,89.00
             139.28,81.92 135.40,78.91 134.00,72.00 Z
           M 154.33,83.60
           C 150.51,87.07 154.22,95.34 159.02,93.54
             161.27,92.69 167.27,88.07 163.63,84.60
             161.34,82.42 157.08,82.93 154.33,83.60 Z
           M 57.77,113.44
           C 52.07,113.54 47.03,119.54 53.07,122.28
             61.40,126.04 63.94,117.85 57.77,113.44 Z" />
      <path id="snake" fill="#091295" stroke="none" stroke-width="1" d="M 62.00,103.00
           C 55.46,102.54 54.25,100.88 49.00,97.36
             42.55,93.04 37.49,89.57 37.04,81.00
             36.29,66.56 45.53,60.63 58.00,57.09
             63.24,55.61 63.25,55.08 69.00,55.00
             69.00,55.00 89.95,56.31 89.95,56.31
             93.50,55.17 94.69,50.92 96.48,48.00
             98.89,44.05 102.05,40.78 106.00,38.34
             117.76,31.08 138.87,34.13 147.53,45.04
             151.71,50.30 152.92,56.45 153.00,63.00
             153.05,68.07 153.61,74.78 147.95,77.06
             145.95,77.97 143.95,77.92 142.00,77.06
             140.60,76.30 139.15,75.03 138.06,73.94
             131.58,67.46 135.61,64.83 133.16,60.86
             127.74,51.60 115.55,48.97 112.00,60.86
             112.00,60.86 102.00,62.00 102.00,62.00
             104.79,64.70 107.14,67.33 111.00,68.43
             114.60,69.46 125.66,68.70 130.79,71.57
             137.41,75.27 143.21,93.20 138.15,99.58
             135.50,102.93 125.12,104.08 121.00,103.90
             112.67,103.53 105.32,101.47 99.09,95.70
             91.39,88.56 90.07,78.35 79.00,74.00
             76.48,73.01 71.85,72.82 69.00,72.62
             63.40,72.23 61.88,74.35 58.00,78.00
             58.00,78.00 65.94,83.47 65.94,83.47
             65.94,83.47 62.00,103.00 62.00,103.00 Z
           M 51.18,63.91
           C 48.45,65.99 50.69,67.32 51.82,67.09
             52.94,66.87 54.51,64.79 51.18,63.91 Z
           M 42.18,74.91
           C 39.45,76.99 41.69,78.32 42.82,78.09
             43.94,77.87 45.51,75.79 42.18,74.91 Z" />
      <path id="coutouring" fill="#a7a5a5" stroke="#a7a5a5" stroke-width="0.5" d="M 57.00,103.00
           C 53.44,101.38 45.02,96.26 42.30,93.66
             33.42,85.19 33.90,71.51 43.05,63.46
             50.62,56.81 62.11,53.99 72.00,54.00
             75.92,54.00 88.68,56.10 90.73,54.94
             92.92,53.70 95.06,48.41 96.79,46.00
             100.23,41.19 105.31,36.88 111.00,35.06
             124.68,30.68 143.01,34.92 150.48,48.00
             153.85,53.90 154.07,59.41 154.00,66.00
             153.94,70.51 153.74,71.81 152.00,75.96
             160.01,75.35 170.16,73.76 178.00,75.96
             185.82,78.09 188.90,83.34 185.64,91.00
             184.79,92.97 183.36,95.27 182.07,96.99
             175.07,106.36 162.13,112.04 158.51,116.32
             155.93,119.37 155.10,127.29 149.45,136.00
             139.02,152.10 123.19,157.21 105.00,157.00
             98.18,156.92 81.68,152.71 78.02,146.67
             77.07,145.11 77.14,143.72 77.00,142.00
             84.56,141.65 99.12,138.92 106.00,136.00
             106.00,136.00 91.00,138.75 91.00,138.75
             76.34,141.30 55.41,144.11 41.00,140.24
             39.34,139.80 36.55,138.85 35.04,138.09
             28.29,134.64 27.52,127.94 31.65,122.00
             36.17,115.50 49.34,107.19 57.00,105.00
             57.00,105.00 57.00,103.00 57.00,103.00 Z
           M 111.00,60.00
           C 114.66,47.58 128.92,50.16 134.23,60.00
             136.66,64.50 132.75,66.65 139.06,72.94
             143.64,77.51 149.31,78.00 151.43,70.96
             152.05,68.90 152.04,65.21 151.99,63.00
             151.73,51.89 146.66,42.58 136.00,38.22
             133.39,37.16 131.60,37.18 129.00,36.56
             121.68,34.82 113.63,35.24 107.00,39.34
             103.05,41.78 99.89,45.05 97.48,49.00
             95.64,52.00 94.55,56.05 90.95,57.39
             88.21,58.40 77.39,56.05 73.00,56.00
             66.35,55.93 56.97,57.69 51.00,60.68
             48.63,61.86 45.08,64.40 43.36,66.30
             36.22,73.64 36.28,84.45 43.36,91.66
             45.45,93.66 47.69,94.82 50.00,96.36
             54.35,99.28 55.73,100.74 61.00,102.00
             61.00,102.00 66.00,84.00 66.00,84.00
             66.00,84.00 62.02,81.80 62.02,81.80
             56.50,78.10 58.32,73.80 64.00,71.75
             66.46,70.87 77.46,72.01 80.00,73.00
             89.70,76.81 91.61,84.79 97.52,91.96
             104.39,100.30 115.44,103.89 126.00,102.42
             128.97,102.01 133.26,101.68 135.72,99.91
             143.30,94.49 136.01,75.25 128.90,72.14
             123.04,69.59 112.80,70.57 109.00,69.11
             106.76,68.25 100.13,63.82 103.46,61.02
             104.93,59.79 109.10,60.01 111.00,60.00 Z
           M 133.00,65.00
           C 133.19,54.20 118.34,48.61 113.00,59.00
             120.97,59.37 126.00,61.41 133.00,65.00 Z
           M 132.00,70.00
           C 130.13,64.01 122.04,61.09 116.00,61.43
             112.57,61.62 112.54,62.91 105.00,63.00
             105.00,63.00 109.04,66.11 109.04,66.11
             109.04,66.11 132.00,70.00 132.00,70.00 Z
           M 71.00,74.00
           C 64.97,72.59 62.96,73.11 59.00,78.00
             59.00,78.00 67.00,82.00 67.00,82.00
             67.00,82.00 71.00,74.00 71.00,74.00 Z
           M 136.00,73.00
           C 136.00,73.00 135.00,73.00 135.00,73.00
             135.00,73.00 136.00,74.00 136.00,74.00
             136.00,74.00 136.00,73.00 136.00,73.00 Z
           M 137.00,74.00
           C 136.65,79.41 142.98,84.69 141.81,94.00
             140.80,101.98 134.98,104.13 128.00,105.13
             115.44,106.93 106.06,104.27 97.09,94.96
             91.80,89.46 89.74,83.88 86.47,80.47
             83.63,77.49 77.61,73.54 73.44,76.00
             71.98,76.86 70.71,78.51 69.98,80.02
             69.98,80.02 64.52,97.00 64.52,97.00
             63.98,99.23 64.03,101.66 62.40,103.46
             61.21,104.77 55.89,107.23 54.00,108.23
             47.84,111.51 37.61,117.38 33.65,123.01
             29.26,129.26 31.18,134.18 38.01,136.93
             40.75,138.03 43.12,138.57 46.00,139.08
             51.05,139.96 51.92,139.99 57.00,140.00
             71.90,140.02 86.48,137.68 101.00,134.42
             103.62,133.84 113.41,130.51 115.09,132.63
             117.27,135.41 109.47,137.51 108.00,138.00
             100.01,140.65 87.37,143.32 79.00,144.00
             81.99,148.98 88.66,151.27 94.00,152.97
             111.40,158.50 132.70,153.21 144.53,138.99
             147.71,135.17 150.72,129.64 152.54,125.00
             154.07,121.10 154.24,117.50 157.28,114.32
             161.54,109.86 174.12,104.44 180.78,94.99
             182.80,92.12 185.36,87.67 184.53,84.04
             182.97,77.22 172.50,77.01 167.00,77.00
             161.70,76.99 156.23,77.35 151.00,78.25
             148.76,78.64 146.23,79.85 144.00,79.27
             141.42,78.61 138.87,75.81 137.00,74.00 Z
           M 152.60,83.02
           C 159.78,79.96 171.83,83.62 163.85,91.81
             163.11,92.58 161.91,93.55 161.00,94.11
             153.55,98.67 149.18,88.03 152.60,83.02 Z
           M 156.00,94.00
           C 158.50,93.02 167.23,88.48 162.63,85.02
             160.83,83.67 155.33,84.00 153.00,84.00
             153.00,84.00 156.00,94.00 156.00,94.00 Z
           M 110.06,87.02
           C 113.90,85.74 116.59,85.76 119.94,88.43
             123.76,91.47 125.12,96.22 119.94,98.79
             114.87,101.30 101.06,94.15 110.06,87.02 Z
           M 55.99,111.84
           C 63.39,112.03 64.09,122.85 59.85,124.23
             57.93,124.86 47.39,124.07 48.88,118.02
             49.69,114.74 53.15,112.97 55.99,111.84 Z
           M 58.00,113.00
           C 53.65,115.16 52.50,115.76 50.00,120.00
             50.00,120.00 60.00,123.00 60.00,123.00
             60.00,123.00 61.00,122.00 61.00,122.00
             61.00,122.00 58.00,113.00 58.00,113.00 Z" />
      <path id="dot" fill="#23b823" stroke="none" stroke-width="1" d="M 112.60,39.04
           C 118.54,37.00 118.61,43.18 115.70,44.34
             113.11,45.38 109.84,43.08 112.60,39.04 Z
           M 129.60,39.04
           C 135.54,37.00 135.61,43.18 132.70,44.34
             130.11,45.38 126.84,43.08 129.60,39.04 Z
           M 120.60,44.04
           C 126.54,42.00 126.61,48.18 123.70,49.34
             121.11,50.38 117.84,48.08 120.60,44.04 Z
           M 140.60,46.04
           C 146.54,44.00 146.61,50.18 143.70,51.34
             141.11,52.38 137.84,50.08 140.60,46.04 Z
           M 107.60,47.04
           C 113.54,45.00 113.61,51.18 110.70,52.34
             108.11,53.38 104.84,51.08 107.60,47.04 Z
           M 131.60,49.04
           C 137.54,47.00 137.61,53.18 134.70,54.34
             132.11,55.38 128.84,53.08 131.60,49.04 Z
           M 99.60,52.04
           C 105.54,50.00 105.61,56.18 102.70,57.34
             100.11,58.38 96.84,56.08 99.60,52.04 Z
           M 143.00,60.16
           C 142.73,58.95 142.37,58.26 142.37,57.06
             142.35,48.46 154.12,57.20 145.86,59.84
             145.86,59.84 143.00,59.84 143.00,59.84
             143.27,61.05 143.63,61.74 143.63,62.94
             143.65,71.54 131.88,62.80 140.14,60.16
             140.14,60.16 143.00,60.16 143.00,60.16 Z
           M 69.60,58.04
           C 75.54,56.00 75.61,62.18 72.70,63.34
             70.11,64.38 66.84,62.08 69.60,58.04 Z
           M 85.60,61.04
           C 91.54,59.00 91.61,65.18 88.70,66.34
             86.11,67.38 82.84,65.08 85.60,61.04 Z
           M 59.60,62.04
           C 65.54,60.00 65.61,66.18 62.70,67.34
             60.11,68.38 56.84,66.08 59.60,62.04 Z
           M 49.60,63.04
           C 55.54,61.00 55.61,67.18 52.70,68.34
             50.11,69.38 46.84,67.08 49.60,63.04 Z
           M 94.60,63.04
           C 100.54,61.00 100.61,67.18 97.70,68.34
             95.11,69.38 91.84,67.08 94.60,63.04 Z
           M 76.60,65.04
           C 82.54,63.00 82.61,69.18 79.70,70.34
             77.11,71.38 73.84,69.08 76.60,65.04 Z
           M 143.60,69.04
           C 149.54,67.00 149.61,73.18 146.70,74.34
             144.11,75.38 140.84,73.08 143.60,69.04 Z
           M 89.60,71.04
           C 95.54,69.00 95.61,75.18 92.70,76.34
             90.11,77.38 86.84,75.08 89.60,71.04 Z
           M 101.60,71.04
           C 107.54,69.00 107.61,75.18 104.70,76.34
             102.11,77.38 98.84,75.08 101.60,71.04 Z
           M 49.60,72.04
           C 55.54,70.00 55.61,76.18 52.70,77.34
             50.11,78.38 46.84,76.08 49.60,72.04 Z
           M 40.60,74.04
           C 46.54,72.00 46.61,78.18 43.70,79.34
             41.11,80.38 37.84,78.08 40.60,74.04 Z
           M 95.60,79.04
           C 101.54,77.00 101.61,83.18 98.70,84.34
             96.11,85.38 92.84,83.08 95.60,79.04 Z
           M 54.60,82.04
           C 60.54,80.00 60.61,86.18 57.70,87.34
             55.11,88.38 51.84,86.08 54.60,82.04 Z
           M 44.60,83.04
           C 50.54,81.00 50.61,87.18 47.70,88.34
             45.11,89.38 41.84,87.08 44.60,83.04 Z
           M 54.60,92.04
           C 60.54,90.00 60.61,96.18 57.70,97.34
             55.11,98.38 51.84,96.08 54.60,92.04 Z" />
    </g>
  </g>
</svg>